<?xml version="1.0" encoding="UTF-8"?>
<svg width="242px" height="82px" viewBox="0 0 242 82" version="1.1" xmlns="http://www.w3.org/2000/svg" xmlns:xlink="http://www.w3.org/1999/xlink">
    <!-- Generator: Sketch 58 (84663) - https://sketch.com -->
    <title>Group 50</title>
    <desc>Created with Sketch.</desc>
    <defs>
        <path d="M0.717168539,36.4595574 C0.174741573,36.9029508 0.489033708,37.7812459 1.19042697,37.7788197 L1.19042697,37.7788197 L36.9463146,37.6750984 L16.2442921,70.2872623 L15.0611461,72.2852623 L35.2444045,73.5869344 L53.3835506,30.6851311 C53.5801348,30.2211148 53.2391461,29.7073607 52.7355506,29.7073607 L52.7355506,29.7073607 L22.1060225,29.711 C21.783236,29.711 21.6133483,29.3288689 21.8299551,29.0898852 L21.8299551,29.0898852 L46.5073483,0.485852459 L45.0444944,0.237770492 L0.717168539,36.4595574 Z" id="path-1"></path>
        <linearGradient x1="67.7402496%" y1="33.4682755%" x2="37.1463121%" y2="80.9284792%" id="linearGradient-3">
            <stop stop-color="#FFBC00" offset="0%"></stop>
            <stop stop-color="#E10400" offset="100%"></stop>
        </linearGradient>
        <path d="M45.31368,0.609756098 L0.50416,37.0219512 C-0.04416,37.4670732 0.27416,38.3506098 0.98256,38.3487805 L0.98256,38.3487805 L37.1262933,38.2445122 L16.2005867,71.0280488 L15.2247733,72.6664634 L25.2693333,74.8823171 L45.7620267,35.0506098 C45.9601333,34.5847561 45.6160533,34.0682927 45.1069867,34.0682927 L45.1069867,34.0682927 L12.7094933,34.0713415 C12.3832,34.0719512 12.21208,33.6871951 12.43104,33.447561 L12.43104,33.447561 L45.4136533,0.581707317 L45.31368,0.609756098 Z" id="path-4"></path>
        <linearGradient x1="66.1603611%" y1="15.2779564%" x2="39.2675226%" y2="80.1803973%" id="linearGradient-6">
            <stop stop-color="#DD6200" offset="0%"></stop>
            <stop stop-color="#C30200" offset="100%"></stop>
        </linearGradient>
        <path d="M41.07984,0.148207407 C18.39211,0.148207407 0,18.4627556 0,41.0540593 L0,41.0540593 C0,62.7998519 17.04157,80.5823111 38.552,81.8827704 L38.552,81.8827704 L40.25024,78.575437 C35.441,78.4776444 30.81293,77.4912148 26.40995,75.6368 L26.40995,75.6368 C21.92218,73.7471556 17.8913,71.0405481 14.42833,67.5929037 L14.42833,67.5929037 C10.96597,64.1446519 8.24842,60.1302963 6.34949,55.6622074 L6.34949,55.6622074 C4.38529,51.0368 3.38977,46.1222667 3.38977,41.0540593 L3.38977,41.0540593 C3.38977,35.9858519 4.38529,31.0707111 6.34949,26.4465185 L6.34949,26.4465185 C8.24842,21.9778222 10.96597,17.9634667 14.42833,14.5158222 L14.42833,14.5158222 C17.8913,11.0675704 21.92218,8.36157037 26.40995,6.47071111 L26.40995,6.47071111 C31.0551,4.51485926 35.99,3.52357037 41.07984,3.52357037 L41.07984,3.52357037 C46.17029,3.52357037 51.1058,4.51485926 55.75034,6.47071111 L55.75034,6.47071111 C56.60556,6.83151111 57.44492,7.22207407 58.26659,7.64057778 L58.26659,7.64057778 L60.69744,5.10525926 C54.86828,1.94431111 48.18512,0.148207407 41.07984,0.148207407 Z" id="path-7"></path>
        <linearGradient x1="65.1662746%" y1="16.6106485%" x2="38.5124596%" y2="70.3318585%" id="linearGradient-9">
            <stop stop-color="#FFBC00" offset="0%"></stop>
            <stop stop-color="#C30200" offset="100%"></stop>
        </linearGradient>
        <path d="M8.27444444,3.39137313 C11.3929444,3.85583582 14.4295556,4.71071642 17.3518889,5.9480597 L17.3518889,5.9480597 C21.8484444,7.85180597 25.8866667,10.5786119 29.3553333,14.0519851 L29.3553333,14.0519851 C32.8246111,17.5259701 35.5477222,21.5702836 37.4488889,26.0723284 L37.4488889,26.0723284 C39.4172778,30.7316418 40.4152222,35.6834627 40.4152222,40.7888806 L40.4152222,40.7888806 C40.4152222,45.8949104 39.4172778,50.8467313 37.4488889,55.5060448 L37.4488889,55.5060448 C35.5477222,60.0074776 32.8246111,64.051791 29.3553333,67.5251642 L29.3553333,67.5251642 C25.8866667,70.9991493 21.8484444,73.7259552 17.3518889,75.6303134 L17.3518889,75.6303134 C12.6988889,77.6007612 7.75438889,78.5994478 2.65466667,78.5994478 L2.65466667,78.5994478 C2.38883333,78.5994478 2.07288889,78.5878209 1.80705556,78.5817015 L1.80705556,78.5817015 L0.0446111111,81.877 C0.865944444,81.9259552 1.82111111,82 2.65466667,82 L2.65466667,82 C25.3849444,82 43.8105556,63.5487761 43.8105556,40.7888806 L43.8105556,40.7888806 C43.8105556,20.5881194 29.2954444,3.78240299 10.1389444,0.258238806 L10.1389444,0.258238806 L8.27444444,3.39137313 Z" id="path-10"></path>
        <linearGradient x1="54.9724001%" y1="12.2308006%" x2="44.7274556%" y2="91.0624515%" id="linearGradient-12">
            <stop stop-color="#FFBC00" offset="0%"></stop>
            <stop stop-color="#E10400" offset="100%"></stop>
        </linearGradient>
        <polygon id="path-13" points="0 82 241.934611 82 241.934611 0.148207407 0 0.148207407"></polygon>
    </defs>
    <g id="logo" stroke="none" stroke-width="1" fill="none" fill-rule="evenodd">
        <g id="Group-50">
            <g id="Group-9" transform="translate(96.000000, 11.000000)" fill="#E10400">
                <path d="M0.231950628,5.29218529 L0.231950628,2.04645 C0.231950628,1.74565588 0.329691213,1.48686176 0.525172385,1.27068529 C0.720653556,1.05450882 0.976611715,0.945802941 1.29243598,0.945802941 L25.8827456,0.945802941 C26.1991808,0.945802941 26.4600259,1.05450882 26.6646703,1.27068529 C26.8687038,1.48686176 26.9713314,1.74565588 26.9713314,2.04645 L26.9713314,5.29218529 C26.9713314,5.59297941 26.8687038,5.85177353 26.6646703,6.06795 C26.4600259,6.28474412 26.1991808,6.39283235 25.8827456,6.39283235 L16.5601264,6.39283235 L16.5601264,40.3146265 C16.5601264,40.5968912 16.4489464,40.8507441 16.2259757,41.0761853 C16.0017833,41.3022441 15.7507121,41.4146559 15.4715406,41.4146559 L11.703641,41.4146559 C11.4244695,41.4146559 11.1733983,41.3022441 10.9504276,41.0761853 C10.7274569,40.8507441 10.6150552,40.5968912 10.6150552,40.3146265 L10.6150552,6.39283235 L1.29243598,6.39283235 C0.976611715,6.39283235 0.720653556,6.28474412 0.525172385,6.06795 C0.329691213,5.85177353 0.231950628,5.59297941 0.231950628,5.29218529" id="Fill-1"></path>
                <path d="M33.1400452,40.3143794 L33.1400452,2.04620294 C33.1400452,1.74602647 33.2420619,1.48723235 33.4473172,1.27043824 C33.6519615,1.05487941 33.9121958,0.946173529 34.228631,0.946173529 L57.0883213,0.946173529 C57.4047565,0.946173529 57.6649908,1.05487941 57.8696351,1.27043824 C58.0742795,1.48723235 58.1769071,1.74602647 58.1769071,2.04620294 L58.1769071,5.29193824 C58.1769071,5.59335 58.0748904,5.85214412 57.8708569,6.06832059 C57.6662126,6.28449706 57.4072,6.39258529 57.0913757,6.39258529 L39.0851163,6.39258529 L39.0851163,18.1890265 L54.2733925,18.1890265 C54.5513423,18.1890265 54.8011916,18.3026735 55.0235515,18.52935 C55.2465222,18.7566441 55.3577021,19.0117324 55.3577021,19.2952324 L55.3577021,22.5292324 C55.3577021,22.8516441 55.2507983,23.1159971 55.0382126,23.3241441 C54.824405,23.5322912 54.5696686,23.6360559 54.2733925,23.6360559 L39.0851163,23.6360559 L39.0851163,35.9679971 L57.0913757,35.9679971 C57.4072,35.9679971 57.6662126,36.0785559 57.8708569,36.2984382 C58.0748904,36.5177029 58.1769071,36.7709382 58.1769071,37.0575265 L58.1769071,40.2970853 C58.1769071,40.6034382 58.0742795,40.8659382 57.8696351,41.0858206 C57.6649908,41.3050853 57.4047565,41.4150265 57.0883213,41.4150265 L34.228631,41.4150265 C33.9121958,41.4150265 33.6519615,41.3069382 33.4473172,41.0901441 C33.2420619,40.8745853 33.1400452,40.6151735 33.1400452,40.3143794" id="Fill-3"></path>
                <path d="M73.0261456,27.6713294 L87.317041,27.6713294 L80.2833841,11.8113882 L80.0042126,11.8113882 L73.0261456,27.6713294 Z M61.414564,39.9192706 L78.9712167,1.00256471 C79.0457439,0.833329412 79.1899113,0.687564706 79.4037188,0.565270588 C79.6175264,0.442976471 79.7989573,0.381211765 79.9480117,0.381211765 L80.5063548,0.381211765 C80.6547983,0.381211765 80.8362293,0.442976471 81.0506477,0.565270588 C81.2644552,0.687564706 81.4092335,0.833329412 81.4837607,1.00256471 L98.9280117,39.9192706 C99.0960033,40.2954176 99.0813423,40.6388294 98.886472,40.9495059 C98.6909908,41.2595647 98.3794427,41.4145941 97.9512167,41.4145941 L94.3506979,41.4145941 C93.736154,41.4145941 93.2993757,41.1255353 93.0391414,40.5455647 L89.4942126,32.6946529 L70.7933841,32.6946529 C70.4024218,33.5735647 69.8159782,34.8823588 69.0346644,36.6204176 C68.2533506,38.3584765 67.6760703,39.6672706 67.3040452,40.5455647 C67.0621372,41.1255353 66.6247481,41.4145941 65.9918778,41.4145941 L62.3919699,41.4145941 C61.9637439,41.4145941 61.6521958,41.2595647 61.4567146,40.9495059 C61.2612335,40.6388294 61.2471833,40.2954176 61.414564,39.9192706 L61.414564,39.9192706 Z" id="Fill-5"></path>
                <path d="M101.85913,40.0885059 L108.948377,1.25641765 C109.003967,1.03097647 109.134084,0.829005882 109.339339,0.649270588 C109.543983,0.470770588 109.758402,0.381211765 109.981372,0.381211765 L110.902577,0.381211765 C111.087674,0.381211765 111.283766,0.442976471 111.48841,0.565270588 C111.693054,0.687564706 111.823782,0.833329412 111.878762,1.00256471 L123.825715,30.5501824 L124.048686,30.5501824 L135.939439,1.00256471 C135.99564,0.833329412 136.122092,0.687564706 136.318184,0.565270588 C136.514276,0.442976471 136.715255,0.381211765 136.921121,0.381211765 L137.845992,0.381211765 C138.069573,0.381211765 138.280326,0.470770588 138.476418,0.648652941 C138.673121,0.827152941 138.798962,1.02912353 138.855163,1.25394706 L145.887598,40.0866529 C145.981063,40.5004765 145.934297,40.8259765 145.748318,41.0619176 C145.562,41.2972412 145.263891,41.4145941 144.854603,41.4145941 L141.139849,41.4145941 C140.89672,41.4145941 140.668862,41.3305941 140.455054,41.1607412 C140.240636,40.9908882 140.105632,40.8025059 140.050042,40.5949765 L135.827038,14.7742412 L135.660268,14.7742412 L125.360854,41.3583882 C125.230126,41.7722118 124.904527,41.9797412 124.383448,41.9797412 L123.351063,41.9797412 C122.84831,41.9797412 122.531874,41.7722118 122.401757,41.3583882 L112.046753,14.7742412 L111.823782,14.7742412 L107.69241,40.5968294 C107.654536,40.8037412 107.529305,40.9915059 107.316109,41.1607412 C107.10169,41.3305941 106.882996,41.4145941 106.659414,41.4145941 L102.947105,41.4145941 C102.202444,41.4145941 101.831029,41.0668588 101.831029,40.3707706 C101.831029,40.2954176 101.840192,40.2015353 101.85913,40.0885059" id="Fill-7"></path>
            </g>
            <g id="Group-12" transform="translate(14.000000, 7.000000)">
                <mask id="mask-2" fill="white">
                    <use xlink:href="#path-1"></use>
                </mask>
                <g id="Clip-11"></g>
                <path d="M0.717168539,36.4595574 C0.174741573,36.9029508 0.489033708,37.7812459 1.19042697,37.7788197 L1.19042697,37.7788197 L36.9463146,37.6750984 L16.2442921,70.2872623 L15.0611461,72.2852623 L35.2444045,73.5869344 L53.3835506,30.6851311 C53.5801348,30.2211148 53.2391461,29.7073607 52.7355506,29.7073607 L52.7355506,29.7073607 L22.1060225,29.711 C21.783236,29.711 21.6133483,29.3288689 21.8299551,29.0898852 L21.8299551,29.0898852 L46.5073483,0.485852459 L45.0444944,0.237770492 L0.717168539,36.4595574 Z" id="Fill-10" fill="url(#linearGradient-3)" mask="url(#mask-2)"></path>
            </g>
            <g id="Group-15" transform="translate(13.000000, 7.000000)">
                <mask id="mask-5" fill="white">
                    <use xlink:href="#path-4"></use>
                </mask>
                <g id="Clip-14"></g>
                <path d="M45.31368,0.609756098 L0.50416,37.0219512 C-0.04416,37.4670732 0.27416,38.3506098 0.98256,38.3487805 L0.98256,38.3487805 L37.1262933,38.2445122 L16.2005867,71.0280488 L15.2247733,72.6664634 L25.2693333,74.8823171 L45.7620267,35.0506098 C45.9601333,34.5847561 45.6160533,34.0682927 45.1069867,34.0682927 L45.1069867,34.0682927 L12.7094933,34.0713415 C12.3832,34.0719512 12.21208,33.6871951 12.43104,33.447561 L12.43104,33.447561 L45.4136533,0.581707317 L45.31368,0.609756098 Z" id="Fill-13" fill="url(#linearGradient-6)" mask="url(#mask-5)"></path>
            </g>
            <g id="Group-18">
                <mask id="mask-8" fill="white">
                    <use xlink:href="#path-7"></use>
                </mask>
                <g id="Clip-17"></g>
                <path d="M41.07984,0.148207407 C18.39211,0.148207407 0,18.4627556 0,41.0540593 L0,41.0540593 C0,62.7998519 17.04157,80.5823111 38.552,81.8827704 L38.552,81.8827704 L40.25024,78.575437 C35.441,78.4776444 30.81293,77.4912148 26.40995,75.6368 L26.40995,75.6368 C21.92218,73.7471556 17.8913,71.0405481 14.42833,67.5929037 L14.42833,67.5929037 C10.96597,64.1446519 8.24842,60.1302963 6.34949,55.6622074 L6.34949,55.6622074 C4.38529,51.0368 3.38977,46.1222667 3.38977,41.0540593 L3.38977,41.0540593 C3.38977,35.9858519 4.38529,31.0707111 6.34949,26.4465185 L6.34949,26.4465185 C8.24842,21.9778222 10.96597,17.9634667 14.42833,14.5158222 L14.42833,14.5158222 C17.8913,11.0675704 21.92218,8.36157037 26.40995,6.47071111 L26.40995,6.47071111 C31.0551,4.51485926 35.99,3.52357037 41.07984,3.52357037 L41.07984,3.52357037 C46.17029,3.52357037 51.1058,4.51485926 55.75034,6.47071111 L55.75034,6.47071111 C56.60556,6.83151111 57.44492,7.22207407 58.26659,7.64057778 L58.26659,7.64057778 L60.69744,5.10525926 C54.86828,1.94431111 48.18512,0.148207407 41.07984,0.148207407 Z" id="Fill-16" fill="url(#linearGradient-9)" mask="url(#mask-8)"></path>
            </g>
            <g id="Group-21" transform="translate(38.000000, 0.000000)">
                <mask id="mask-11" fill="white">
                    <use xlink:href="#path-10"></use>
                </mask>
                <g id="Clip-20"></g>
                <path d="M8.27444444,3.39137313 C11.3929444,3.85583582 14.4295556,4.71071642 17.3518889,5.9480597 L17.3518889,5.9480597 C21.8484444,7.85180597 25.8866667,10.5786119 29.3553333,14.0519851 L29.3553333,14.0519851 C32.8246111,17.5259701 35.5477222,21.5702836 37.4488889,26.0723284 L37.4488889,26.0723284 C39.4172778,30.7316418 40.4152222,35.6834627 40.4152222,40.7888806 L40.4152222,40.7888806 C40.4152222,45.8949104 39.4172778,50.8467313 37.4488889,55.5060448 L37.4488889,55.5060448 C35.5477222,60.0074776 32.8246111,64.051791 29.3553333,67.5251642 L29.3553333,67.5251642 C25.8866667,70.9991493 21.8484444,73.7259552 17.3518889,75.6303134 L17.3518889,75.6303134 C12.6988889,77.6007612 7.75438889,78.5994478 2.65466667,78.5994478 L2.65466667,78.5994478 C2.38883333,78.5994478 2.07288889,78.5878209 1.80705556,78.5817015 L1.80705556,78.5817015 L0.0446111111,81.877 C0.865944444,81.9259552 1.82111111,82 2.65466667,82 L2.65466667,82 C25.3849444,82 43.8105556,63.5487761 43.8105556,40.7888806 L43.8105556,40.7888806 C43.8105556,20.5881194 29.2954444,3.78240299 10.1389444,0.258238806 L10.1389444,0.258238806 L8.27444444,3.39137313 Z" id="Fill-19" fill="url(#linearGradient-12)" mask="url(#mask-11)"></path>
            </g>
            <g id="Group-49">
                <path d="M102.085867,65.7713496 C102.475756,65.3643867 102.670089,64.8189348 102.670089,64.1349941 C102.670089,63.4516607 102.475756,62.9056015 102.085867,62.4986385 C101.695978,62.0916756 101.198533,61.8875867 100.5917,61.8875867 C99.9848667,61.8875867 99.4862,62.0916756 99.0963111,62.4986385 C98.7076444,62.9056015 98.5127,63.4516607 98.5127,64.1349941 C98.5127,64.8189348 98.7076444,65.3643867 99.0963111,65.7713496 C99.4862,66.1783126 99.9848667,66.3817941 100.5917,66.3817941 C101.198533,66.3817941 101.695978,66.1783126 102.085867,65.7713496 M103.071589,60.4784015 C103.694311,60.8246237 104.182589,61.3129793 104.536422,61.9410385 C104.890256,62.5697052 105.067478,63.3004163 105.067478,64.1349941 C105.067478,64.9695719 104.890256,65.7008904 104.536422,66.3289496 C104.182589,66.9576163 103.694311,67.444757 103.071589,67.7921941 C102.450089,68.1384163 101.760144,68.3121348 101.001756,68.3121348 C99.8785333,68.3121348 99.0229778,67.9604459 98.4369222,67.2564607 L98.4369222,68.1912607 L96.1764222,68.1912607 L96.1764222,57.0022089 L98.5432556,57.0022089 L98.5432556,60.9382089 C99.1403111,60.2846385 99.9592,59.9578533 101.001756,59.9578533 C101.760144,59.9578533 102.450089,60.1309644 103.071589,60.4784015" id="Fill-22" fill="#E10400"></path>
                <path d="M114.518739,60.0784237 L110.832517,68.6890311 C110.457906,69.6238311 109.995906,70.2822607 109.444072,70.66432 C108.89285,71.0469867 108.22735,71.2377126 107.449406,71.2377126 C107.024072,71.2377126 106.604239,71.1721126 106.189906,71.04152 C105.774961,70.91032 105.436406,70.72992 105.173628,70.4991052 L106.03835,68.8250904 C106.21985,68.9854459 106.430072,69.1117867 106.667183,69.2022904 C106.904906,69.2921867 107.140794,69.3377422 107.373628,69.3377422 C107.696906,69.3377422 107.959683,69.2599941 108.162572,69.1038904 C108.36485,68.9477867 108.546961,68.6890311 108.708294,68.3270163 L108.73885,68.2516978 L105.204183,60.0784237 L107.646183,60.0784237 L109.937239,65.5827496 L112.242961,60.0784237 L114.518739,60.0784237 Z" id="Fill-24" fill="#E10400"></path>
                <polygon id="Fill-26" fill="#E10400" points="128.552233 66.2008474 128.552233 68.1913215 119.268233 68.1913215 119.268233 66.6078104 125.093344 59.6262696 119.389233 59.6262696 119.389233 57.6357956 128.3249 57.6357956 128.3249 59.2193067 122.514456 66.2008474"></polygon>
                <path d="M137.374539,60.8625867 C137.997261,61.4657422 138.307706,62.3610607 138.307706,63.54672 L138.307706,68.1915644 L135.940261,68.1915644 L135.940261,63.9087348 C135.940261,63.2660978 135.799706,62.7856385 135.51615,62.4685719 C135.233206,62.1521126 134.82315,61.9935793 134.287206,61.9935793 C133.69015,61.9935793 133.215317,62.1776237 132.860872,62.5438904 C132.507039,62.9113719 132.329817,63.4568237 132.329817,64.1802459 L132.329817,68.1915644 L129.963594,68.1915644 L129.963594,57.0025126 L132.329817,57.0025126 L132.329817,60.9233274 C132.643317,60.6117274 133.022206,60.3724089 133.467706,60.2065867 C133.913206,60.0407644 134.398428,59.958157 134.924594,59.958157 C135.935983,59.958157 136.752428,60.2594311 137.374539,60.8625867" id="Fill-28" fill="#E10400"></path>
                <path d="M144.635089,66.4499452 C144.948589,66.2640785 145.171033,65.9901378 145.302422,65.6275156 L145.302422,64.7984044 L143.679311,64.7984044 C142.708256,64.7984044 142.222422,65.1154711 142.222422,65.7483896 C142.222422,66.0502711 142.340978,66.2889822 142.579311,66.464523 C142.816422,66.6406711 143.142756,66.7287452 143.557089,66.7287452 C143.961644,66.7287452 144.320367,66.6364193 144.635089,66.4499452 M146.652978,60.8551156 C147.330089,61.4534119 147.669256,62.3554119 147.669256,63.561723 L147.669256,68.1913822 L145.453978,68.1913822 L145.453978,67.1812637 C145.009089,67.9350563 144.179811,68.3116489 142.966144,68.3116489 C142.338533,68.3116489 141.795256,68.2065674 141.335089,67.9951896 C140.874922,67.7844193 140.522922,67.4928637 140.280311,67.120523 C140.0377,66.749397 139.916089,66.3266415 139.916089,65.8540785 C139.916089,65.1002859 140.202089,64.5068489 140.774089,64.0749822 C141.344867,63.6425081 142.227311,63.4262711 143.421422,63.4262711 L145.302422,63.4262711 C145.302422,62.9136193 145.145367,62.5188044 144.831867,62.2424341 C144.518978,61.9660637 144.047811,61.8275748 143.421422,61.8275748 C142.986311,61.8275748 142.559144,61.8956044 142.139311,62.0316637 C141.719478,62.1671156 141.362589,62.3505526 141.069867,62.5813674 L140.2192,60.9383304 C140.6647,60.6267304 141.1982,60.3855896 141.820922,60.2143007 C142.442422,60.0436193 143.082256,59.9579748 143.7392,59.9579748 C145.003589,59.9579748 145.974644,60.2574267 146.652978,60.8551156" id="Fill-30" fill="#E10400"></path>
                <path d="M157.219517,60.8625867 C157.841628,61.4657422 158.152072,62.3610607 158.152072,63.54672 L158.152072,68.1915644 L155.785239,68.1915644 L155.785239,63.9087348 C155.785239,63.2660978 155.644072,62.7856385 155.361128,62.4685719 C155.077572,62.1521126 154.667517,61.9935793 154.131572,61.9935793 C153.535128,61.9935793 153.059683,62.1776237 152.70585,62.5438904 C152.351406,62.9113719 152.174794,63.4568237 152.174794,64.1802459 L152.174794,68.1915644 L149.807961,68.1915644 L149.807961,60.0784237 L152.068461,60.0784237 L152.068461,61.0284089 C152.381961,60.6870459 152.771239,60.4228237 153.236906,60.236957 C153.701961,60.0510904 154.212239,59.958157 154.768961,59.958157 C155.780961,59.958157 156.596794,60.2594311 157.219517,60.8625867" id="Fill-32" fill="#E10400"></path>
                <path d="M167.7027,60.8625867 C168.325422,61.4657422 168.635867,62.3610607 168.635867,63.54672 L168.635867,68.1915644 L166.269033,68.1915644 L166.269033,63.9087348 C166.269033,63.2660978 166.127867,62.7856385 165.844311,62.4685719 C165.561367,62.1521126 165.151311,61.9935793 164.615367,61.9935793 C164.018311,61.9935793 163.543478,62.1776237 163.189033,62.5438904 C162.8352,62.9113719 162.657978,63.4568237 162.657978,64.1802459 L162.657978,68.1915644 L160.291756,68.1915644 L160.291756,60.0784237 L162.551644,60.0784237 L162.551644,61.0284089 C162.865756,60.6870459 163.255033,60.4228237 163.720089,60.236957 C164.185756,60.0510904 164.696033,59.958157 165.252756,59.958157 C166.264144,59.958157 167.080589,60.2594311 167.7027,60.8625867" id="Fill-34" fill="#E10400"></path>
                <path d="M174.962639,66.4499452 C175.276139,66.2640785 175.498583,65.9901378 175.629972,65.6275156 L175.629972,64.7984044 L174.006861,64.7984044 C173.035806,64.7984044 172.549972,65.1154711 172.549972,65.7483896 C172.549972,66.0502711 172.668528,66.2889822 172.906861,66.464523 C173.143972,66.6406711 173.470306,66.7287452 173.884639,66.7287452 C174.289194,66.7287452 174.648528,66.6364193 174.962639,66.4499452 M176.980528,60.8551156 C177.657639,61.4534119 177.996806,62.3554119 177.996806,63.561723 L177.996806,68.1913822 L175.781528,68.1913822 L175.781528,67.1812637 C175.336639,67.9350563 174.507361,68.3116489 173.293694,68.3116489 C172.666083,68.3116489 172.122806,68.2065674 171.662639,67.9951896 C171.202472,67.7844193 170.850472,67.4928637 170.607861,67.120523 C170.365861,66.749397 170.243639,66.3266415 170.243639,65.8540785 C170.243639,65.1002859 170.529639,64.5068489 171.101639,64.0749822 C171.672417,63.6425081 172.554861,63.4262711 173.748972,63.4262711 L175.629972,63.4262711 C175.629972,62.9136193 175.472917,62.5188044 175.159417,62.2424341 C174.846528,61.9660637 174.375361,61.8275748 173.748972,61.8275748 C173.313861,61.8275748 172.886694,61.8956044 172.466861,62.0316637 C172.047028,62.1671156 171.69075,62.3505526 171.397417,62.5813674 L170.54675,60.9383304 C170.99225,60.6267304 171.52575,60.3855896 172.148472,60.2143007 C172.769972,60.0436193 173.409806,59.9579748 174.06675,59.9579748 C175.33175,59.9579748 176.302194,60.2574267 176.980528,60.8551156" id="Fill-36" fill="#E10400"></path>
                <polygon id="Fill-38" fill="#E10400" points="188.465567 64.0446726 187.038622 65.5224948 187.038622 68.191443 184.596622 68.191443 184.596622 57.635917 187.038622 57.635917 187.038622 62.566243 191.742344 57.635917 194.4734 57.635917 190.074011 62.3402874 194.731289 68.191443 191.863956 68.191443"></polygon>
                <path d="M199.661917,66.4499452 C199.976028,66.2640785 200.198472,65.9901378 200.329861,65.6275156 L200.329861,64.7984044 L198.706139,64.7984044 C197.735694,64.7984044 197.249861,65.1154711 197.249861,65.7483896 C197.249861,66.0502711 197.368417,66.2889822 197.606139,66.464523 C197.84325,66.6406711 198.170194,66.7287452 198.584528,66.7287452 C198.989083,66.7287452 199.347806,66.6364193 199.661917,66.4499452 M201.680417,60.8551156 C202.357528,61.4534119 202.696694,62.3554119 202.696694,63.561723 L202.696694,68.1913822 L200.481417,68.1913822 L200.481417,67.1812637 C200.035917,67.9350563 199.206639,68.3116489 197.992972,68.3116489 C197.365972,68.3116489 196.822694,68.2065674 196.361917,67.9951896 C195.90175,67.7844193 195.550361,67.4928637 195.30775,67.120523 C195.065139,66.749397 194.943528,66.3266415 194.943528,65.8540785 C194.943528,65.1002859 195.229528,64.5068489 195.801528,64.0749822 C196.372306,63.6425081 197.25475,63.4262711 198.44825,63.4262711 L200.329861,63.4262711 C200.329861,62.9136193 200.172806,62.5188044 199.859306,62.2424341 C199.545806,61.9660637 199.07525,61.8275748 198.44825,61.8275748 C198.01375,61.8275748 197.586583,61.8956044 197.16675,62.0316637 C196.746306,62.1671156 196.390028,62.3505526 196.096694,62.5813674 L195.246639,60.9383304 C195.692139,60.6267304 196.225639,60.3855896 196.84775,60.2143007 C197.469861,60.0436193 198.109694,59.9579748 198.766639,59.9579748 C200.031028,59.9579748 201.002083,60.2574267 201.680417,60.8551156" id="Fill-40" fill="#E10400"></path>
                <path d="M210.744906,65.7713496 C211.134183,65.3643867 211.328517,64.8189348 211.328517,64.1349941 C211.328517,63.4516607 211.134183,62.9056015 210.744906,62.4986385 C210.355017,62.0916756 209.856961,61.8875867 209.250128,61.8875867 C208.643294,61.8875867 208.144628,62.0916756 207.75535,62.4986385 C207.366683,62.9056015 207.171739,63.4516607 207.171739,64.1349941 C207.171739,64.8189348 207.366683,65.3643867 207.75535,65.7713496 C208.144628,66.1783126 208.643294,66.3817941 209.250128,66.3817941 C209.856961,66.3817941 210.355017,66.1783126 210.744906,65.7713496 M211.730628,60.4784015 C212.352739,60.8246237 212.841017,61.3129793 213.19485,61.9410385 C213.549294,62.5697052 213.725906,63.3004163 213.725906,64.1349941 C213.725906,64.9695719 213.549294,65.7008904 213.19485,66.3289496 C212.841017,66.9576163 212.352739,67.444757 211.730628,67.7921941 C211.108517,68.1384163 210.418572,68.3121348 209.660183,68.3121348 C208.618239,68.3121348 207.798739,67.985957 207.201683,67.3317793 L207.201683,71.1171422 L204.835461,71.1171422 L204.835461,60.07812 L207.095961,60.07812 L207.095961,61.0135274 C207.682017,60.3101496 208.537572,59.9578533 209.660183,59.9578533 C210.418572,59.9578533 211.108517,60.1309644 211.730628,60.4784015" id="Fill-42" fill="#E10400"></path>
                <mask id="mask-14" fill="white">
                    <use xlink:href="#path-13"></use>
                </mask>
                <g id="Clip-45"></g>
                <path d="M215.303611,68.1918074 L217.670444,68.1918074 L217.670444,60.0786667 L215.303611,60.0786667 L215.303611,68.1918074 Z M215.424611,58.5704741 C215.151444,58.3196148 215.015778,58.0074074 215.015778,57.6356741 C215.015778,57.2639407 215.151444,56.9517333 215.424611,56.7008741 C215.698389,56.4494074 216.052222,56.3236741 216.486722,56.3236741 C216.921833,56.3236741 217.275667,56.4439407 217.548833,56.6856889 C217.822,56.9268296 217.958278,57.2287111 217.958278,57.5901185 C217.958278,57.9825037 217.822,58.3068593 217.548833,58.5631852 C217.275667,58.8195111 216.921833,58.9476741 216.486722,58.9476741 C216.052222,58.9476741 215.698389,58.8219407 215.424611,58.5704741 L215.424611,58.5704741 Z" id="Fill-44" fill="#E10400" mask="url(#mask-14)"></path>
                <path d="M225.134617,67.7994222 C224.901783,67.9707111 224.616394,68.0988741 224.27845,68.1839111 C223.938672,68.2689481 223.582394,68.3120741 223.208394,68.3120741 C222.237339,68.3120741 221.485672,68.0654667 220.955228,67.5728593 C220.424172,67.0808593 220.158339,66.3568296 220.158339,65.4019852 L220.158339,62.0691407 L218.89945,62.0691407 L218.89945,60.2596741 L220.158339,60.2596741 L220.158339,58.2837778 L222.525172,58.2837778 L222.525172,60.2596741 L224.558339,60.2596741 L224.558339,62.0691407 L222.525172,62.0691407 L222.525172,65.3716148 C222.525172,65.7135852 222.613783,65.9772 222.791006,66.1630667 C222.967617,66.3495407 223.218172,66.4424741 223.542061,66.4424741 C223.916061,66.4424741 224.23445,66.3422519 224.497839,66.1405926 L225.134617,67.7994222 Z" id="Fill-46" fill="#E10400" mask="url(#mask-14)"></path>
                <path d="M227.229383,68.0634015 C226.581606,67.8975793 226.065828,67.6886311 225.681439,67.4377719 L226.470994,65.7485719 C226.834606,65.9799941 227.274606,66.1682904 227.790994,66.3140681 C228.306161,66.4598459 228.81155,66.5327348 229.307772,66.5327348 C230.308772,66.5327348 230.809272,66.2867348 230.809272,65.7941274 C230.809272,65.5627052 230.673606,65.396883 230.399217,65.2960533 C230.126661,65.1958311 229.707439,65.1107941 229.140939,65.0397274 C228.473606,64.9395052 227.921772,64.8240978 227.487272,64.6928978 C227.052161,64.5623052 226.675106,64.330883 226.356717,63.9998459 C226.037717,63.6675941 225.878828,63.1950311 225.878828,62.5815496 C225.878828,62.0688978 226.027939,61.614557 226.326161,61.2173126 C226.624994,60.8200681 227.059494,60.5108978 227.630883,60.2898015 C228.202272,60.0687052 228.87755,59.958157 229.656717,59.958157 C230.232994,59.958157 230.806828,60.02072 231.378217,60.1464533 C231.950217,60.2721867 232.423217,60.4452978 232.797217,60.6670015 L232.008272,62.3404089 C231.290217,61.9389126 230.506161,61.7372533 229.656717,61.7372533 C229.150717,61.7372533 228.770606,61.8077126 228.518828,61.9486311 C228.265217,62.0895496 228.139328,62.270557 228.139328,62.4910459 C228.139328,62.74312 228.275606,62.9186607 228.549383,63.0194904 C228.821939,63.1197126 229.256439,63.2150756 229.854106,63.3055793 C230.52205,63.4167348 231.067161,63.5345719 231.492494,63.6603052 C231.917217,63.7860385 232.285717,64.0144237 232.599828,64.3460681 C232.913328,64.67832 233.070383,65.140557 233.070383,65.7339941 C233.070383,66.23632 232.918828,66.6839793 232.615106,67.075757 C232.311383,67.4681422 231.868939,67.7718459 231.287772,67.9874756 C230.705383,68.2037126 230.015439,68.3118311 229.216717,68.3118311 C228.538994,68.3118311 227.87655,68.2292237 227.229383,68.0634015" id="Fill-47" fill="#E10400" mask="url(#mask-14)"></path>
                <path d="M238.713933,66.4499452 C239.027433,66.2640785 239.249878,65.9901378 239.381267,65.6275156 L239.381267,64.7984044 L237.757544,64.7984044 C236.7871,64.7984044 236.301267,65.1154711 236.301267,65.7483896 C236.301267,66.0502711 236.419822,66.2889822 236.657544,66.464523 C236.895267,66.6406711 237.2216,66.7287452 237.635933,66.7287452 C238.040489,66.7287452 238.399211,66.6364193 238.713933,66.4499452 M240.731822,60.8551156 C241.408933,61.4534119 241.7481,62.3554119 241.7481,63.561723 L241.7481,68.1913822 L239.532822,68.1913822 L239.532822,67.1812637 C239.087933,67.9350563 238.258656,68.3116489 237.044989,68.3116489 C236.417378,68.3116489 235.8741,68.2065674 235.413933,67.9951896 C234.953156,67.7844193 234.601767,67.4928637 234.359156,67.120523 C234.116544,66.749397 233.994933,66.3266415 233.994933,65.8540785 C233.994933,65.1002859 234.280933,64.5068489 234.852933,64.0749822 C235.423711,63.6425081 236.306156,63.4262711 237.500267,63.4262711 L239.381267,63.4262711 C239.381267,62.9136193 239.224211,62.5188044 238.910711,62.2424341 C238.597822,61.9660637 238.126656,61.8275748 237.500267,61.8275748 C237.065156,61.8275748 236.637989,61.8956044 236.218156,62.0316637 C235.798322,62.1671156 235.441433,62.3505526 235.148711,62.5813674 L234.298044,60.9383304 C234.743544,60.6267304 235.277044,60.3855896 235.899156,60.2143007 C236.521267,60.0436193 237.1611,59.9579748 237.818044,59.9579748 C239.082433,59.9579748 240.053489,60.2574267 240.731822,60.8551156" id="Fill-48" fill="#E10400" mask="url(#mask-14)"></path>
            </g>
        </g>
    </g>
</svg>