<?xml version="1.0" encoding="UTF-8"?>
<svg width="161px" height="54px" viewBox="0 0 161 54" version="1.1" xmlns="http://www.w3.org/2000/svg" xmlns:xlink="http://www.w3.org/1999/xlink">
    <!-- Generator: Sketch 58 (84663) - https://sketch.com -->
    <title>Group 4</title>
    <desc>Created with Sketch.</desc>
    <g id="logo" stroke="none" stroke-width="1" fill="none" fill-rule="evenodd">
        <g id="Group-4">
            <g id="Group-3" transform="translate(63.000000, 9.000000)" fill="#FFFFFF">
                <g id="Group-2">
                    <text id="by-Zhanna-Kapitsa" font-family="Montserrat-SemiBold, Montserrat SemiBold" font-size="10.2" font-weight="500">
                        <tspan x="0" y="38.3446328">by Zhanna Kapitsa</tspan>
                    </text>
                    <g id="Group" transform="translate(0.276836, 0.000000)" fill-rule="nonzero">
                        <path d="M0.0350673808,3.24738323 L0.0350673808,1.12079663 C0.0350673808,0.920175254 0.116088732,0.759678152 0.23762076,0.59918105 C0.359152787,0.478808224 0.52119549,0.398559673 0.764259545,0.398559673 L17.0900619,0.398559673 C17.2926153,0.398559673 17.454658,0.478808224 17.6167007,0.59918105 C17.7382327,0.759678152 17.819254,0.920175254 17.819254,1.12079663 L17.819254,3.24738323 C17.819254,3.44800461 17.7382327,3.60850171 17.6167007,3.76899881 C17.4951686,3.92949592 17.2926153,3.96962019 17.0900619,3.96962019 L10.8919285,3.96962019 L10.8919285,25.9978474 C10.8919285,26.1984688 10.8109071,26.3589659 10.6893751,26.4793387 C10.5273324,26.6398358 10.3652897,26.6799601 10.203247,26.6799601 L7.6915851,26.6799601 C7.48903172,26.6799601 7.32698902,26.5997116 7.20545699,26.4793387 C7.04341429,26.3188416 7.00290361,26.1583445 7.00290361,25.9978474 L7.00290361,3.92949592 L0.80477022,3.92949592 C0.602216842,3.92949592 0.440174138,3.84924736 0.278131435,3.72887454 C0.116088732,3.60850171 0.0350673808,3.44800461 0.0350673808,3.24738323 Z" id="Path"></path>
                        <path d="M21.8703216,25.9978474 L21.8703216,1.12079663 C21.8703216,0.920175254 21.951343,0.759678152 22.072875,0.59918105 C22.194407,0.478808224 22.3969604,0.398559673 22.5995138,0.398559673 L37.7505065,0.398559673 C37.9530599,0.398559673 38.1151026,0.478808224 38.2771453,0.59918105 C38.3986773,0.759678152 38.4796987,0.920175254 38.4796987,1.12079663 L38.4796987,3.24738323 C38.4796987,3.44800461 38.3986773,3.60850171 38.2771453,3.76899881 C38.1556133,3.92949592 37.9530599,3.96962019 37.7505065,3.96962019 L25.7998572,3.96962019 L25.7998572,11.6333568 L35.8870154,11.6333568 C36.0895688,11.6333568 36.2516115,11.7136054 36.3731435,11.8741025 C36.5351862,12.0345996 36.5756969,12.1950967 36.5756969,12.3555938 L36.5756969,14.4420561 C36.5756969,14.6426775 36.4946756,14.8031746 36.3731435,14.9636717 C36.2516115,15.0840445 36.0490581,15.1642931 35.8465048,15.1642931 L25.7593465,15.1642931 L25.7593465,23.1891482 L37.7099958,23.1891482 C37.9125492,23.1891482 38.0745919,23.2693967 38.2366346,23.3897695 C38.3986773,23.5101424 38.439188,23.7107637 38.439188,23.8712608 L38.439188,25.9577232 C38.439188,26.1583445 38.3581667,26.3188416 38.2366346,26.4793387 C38.1151026,26.6398358 37.9125492,26.6799601 37.7099958,26.6799601 L22.5590031,26.6799601 C22.3564497,26.6799601 22.194407,26.5997116 22.0323643,26.4793387 C21.951343,26.3589659 21.8703216,26.1984688 21.8703216,25.9978474 Z" id="Path"></path>
                        <path d="M40.6267645,25.7169775 L52.2533284,0.438683948 C52.2938391,0.318311122 52.4153711,0.238062571 52.5369032,0.15781402 C52.6584352,0.0775654687 52.7799672,0.0374411932 52.9014993,0.0374411932 L53.2660953,0.0374411932 C53.3471167,0.0374411932 53.4686487,0.0775654687 53.6306914,0.15781402 C53.7522234,0.238062571 53.8737555,0.318311122 53.9142661,0.438683948 L65.5003194,25.7169775 C65.6218514,25.9577232 65.6218514,26.1984688 65.4598087,26.3990902 C65.3382767,26.5997116 65.1357233,26.7200844 64.8521486,26.7200844 L62.4620187,26.7200844 C62.056912,26.7200844 61.7733372,26.519463 61.6112945,26.1583445 L59.2616753,21.0625616 L46.8248979,21.0625616 C46.5818338,21.6243014 46.1767271,22.4669112 45.6500883,23.6305152 C45.1234495,24.7539949 44.7588534,25.5966047 44.5157894,26.1984688 C44.3537467,26.5595873 44.0701719,26.7602087 43.6650652,26.7602087 L41.2749353,26.7602087 C40.9913606,26.7602087 40.7888072,26.6398358 40.6672752,26.4392145 C40.5052325,26.1984688 40.5052325,25.9577232 40.6267645,25.7169775 Z M48.3237929,17.772371 L57.803291,17.772371 L53.1445633,7.46043216 L52.9420099,7.46043216 L48.3237929,17.772371 Z" id="Shape"></path>
                        <path d="M67.4448319,25.8373503 L72.1440702,0.59918105 C72.1845809,0.438683948 72.2656023,0.318311122 72.3871343,0.197938295 C72.5086663,0.0775654687 72.670709,0.0374411932 72.8327517,0.0374411932 L73.4404119,0.0374411932 C73.5619439,0.0374411932 73.6834759,0.0775654687 73.8455186,0.15781402 C73.9670507,0.238062571 74.048072,0.318311122 74.0885827,0.438683948 L82.0286751,19.6180876 L82.1907178,19.6180876 L90.0902996,0.438683948 C90.1308103,0.318311122 90.2118316,0.238062571 90.3333637,0.15781402 C90.4548957,0.0775654687 90.5764277,0.0374411932 90.7384704,0.0374411932 L91.3461306,0.0374411932 C91.5081733,0.0374411932 91.6297053,0.0775654687 91.7512373,0.197938295 C91.8727693,0.318311122 91.9537907,0.438683948 91.9943014,0.59918105 L96.6530291,25.8373503 C96.7340504,26.1182203 96.6935398,26.3188416 96.5720077,26.4793387 C96.4504757,26.6398358 96.2479223,26.7200844 95.9643476,26.7200844 L93.4931964,26.7200844 C93.3311537,26.7200844 93.169111,26.6799601 93.0475789,26.5595873 C92.8855362,26.4392145 92.8045149,26.3188416 92.7640042,26.1984688 L89.9687676,9.42652166 L89.8472356,9.42652166 L83.0009313,26.6799601 C82.91991,26.96083 82.7173566,27.0812029 82.3527605,27.0812029 L81.664079,27.0812029 C81.3399936,27.0812029 81.1374403,26.96083 81.0159082,26.6799601 L74.1290934,9.42652166 L73.9670507,9.42652166 L71.2123247,26.1984688 C71.171814,26.3188416 71.0907927,26.4392145 70.9692606,26.5595873 C70.8072179,26.6799601 70.6856859,26.7200844 70.5236432,26.7200844 L68.052492,26.7200844 C67.5663639,26.7200844 67.3232998,26.4793387 67.3232998,26.0379717 C67.4043212,25.9577232 67.4448319,25.9175989 67.4448319,25.8373503 Z" id="Path"></path>
                    </g>
                </g>
            </g>
            <g id="Group">
                <circle id="Oval" cx="27.8587571" cy="26.8587571" r="24.8587571"></circle>
                <path d="M19.5072427,49.6719048 L33.2558857,27.9320911 L9.50822967,28.0129083 C9.02440645,28.0129083 8.82281345,27.4471882 9.18568086,27.1239196 L38.6585783,3 L39.6262247,3.1616343 L23.216554,22.1940734 C23.0552796,22.3557077 23.1762354,22.5981592 23.418147,22.5981592 L43.7790406,22.5981592 C44.1015894,22.5981592 44.343501,22.9214278 44.2225452,23.2446964 L32.1672835,51.8135593 L18.7411893,50.9649792 L19.5072427,49.6719048 Z" id="Path" fill="#FFFFFF" fill-rule="nonzero"></path>
                <circle id="Oval" stroke="#FFFFFF" stroke-width="2.5" cx="27" cy="27" r="25.75"></circle>
            </g>
        </g>
    </g>
</svg>