<svg xmlns="http://www.w3.org/2000/svg" width="300" height="65" viewBox="0 0 300 65"><g><g><g><path fill="#0957c3" d="M99.038 21.67c7.051 0 13.447 1.457 13.447 11.729 0 10.328-6.38 11.785-13.447 11.785h-3.986V21.67zm-.192-7.75H85.45v39h13.396c13.278 0 23.756-4.639 23.756-19.535 0-14.84-10.463-19.465-23.756-19.465z"/></g><g><path fill="#0957c3" d="M146.273 45.404c-5.891 0-10.842-4.256-10.842-12.45 0-8.193 4.95-12.45 10.842-12.45s10.842 4.257 10.842 12.45c0 8.208-4.95 12.464-10.842 12.45zm.015 7.515c12.345 0 20.898-7.93 20.898-19.965 0-12.034-8.568-19.964-20.898-19.964-12.403 0-20.898 7.93-20.898 19.964 0 12.034 8.495 19.965 20.898 19.965z"/></g><g><path fill="#0957c3" d="M189.97 52.919c-12.453 0-20-7.67-20-20.013 0-12.191 7.82-19.916 20.272-19.916 10.029 0 17.073 6.283 18.45 15.062h-9.253c-1.047-5.27-5.064-7.559-9.526-7.559-5.624 0-9.972 4.521-9.972 12.413 0 8.14 4.348 12.51 10.086 12.51 4.075 0 8.594-1.706 9.699-7.56h9.253c-1.434 8.933-8.924 15.063-19.009 15.063z"/></g><g><path fill="#0957c3" d="M210.84 42.71h10.217v9.286H210.84z"/></g><g><path fill="#0957c3" d="M234.15 36.813c0 5.603 1.37 8.715 7.895 8.715 6.582 0 7.725-3.594 7.725-9.251V13.92h9.365v21.613c0 11.784-4.71 17.387-17.104 17.387-11.893 0-17.261-4.433-17.261-17.07V13.92h9.38z"/></g><g><path fill="#0957c3" d="M274.263 38.5l5.228-14.855 5.17 14.855zm.044-24.58l-15.177 39h10.122l2.39-6.937h15.568l2.447 6.937h10.34l-15.235-39z"/></g><g><path fill="#fe5000" d="M7.914 10.21L0 23.42l58.03 32.29 7.914-13.21z"/></g><g><path fill="#0957c3" d="M40.87.92H25.08v64.071h15.79z"/></g><g><path fill="#47d7ac" d="M0 42.5l7.914 13.21 58.03-32.29-7.913-13.21z"/></g></g></g></svg>