<svg xmlns="http://www.w3.org/2000/svg" width="359" height="78" viewBox="0 0 359 78"><g><g><g><path fill="#0957c3" d="M118.588 24.637c8.344 0 15.912 1.735 15.912 13.96 0 12.293-7.55 14.028-15.912 14.028h-4.717V24.637zm-.225-9.227H102.49v46.435h15.873c15.735 0 28.15-5.522 28.15-23.259 0-17.67-12.398-23.176-28.15-23.176z"/></g><g><path fill="#0957c3" d="M174.66 53.64c-7.036 0-12.948-5.122-12.948-14.983s5.912-14.984 12.948-14.984c7.036 0 12.948 5.123 12.948 14.984 0 9.878-5.912 15-12.948 14.983zm.018 9.044c14.749 0 24.967-9.544 24.967-24.027S189.409 14.63 174.678 14.63c-14.818 0-24.968 9.544-24.968 24.027s10.15 24.027 24.968 24.027z"/></g><g><path fill="#0957c3" d="M226.974 62.687c-15.01 0-24.104-9.227-24.104-24.077 0-14.666 9.424-23.96 24.432-23.96 12.086 0 20.576 7.558 22.235 18.12h-11.152c-1.261-6.34-6.103-9.093-11.48-9.093-6.778 0-12.018 5.44-12.018 14.933 0 9.795 5.24 15.05 12.156 15.05 4.91 0 10.357-2.052 11.688-9.093h11.152c-1.728 10.745-10.755 18.12-22.909 18.12z"/></g><g><path fill="#0957c3" d="M252.73 50.45h12.345v11.396H252.73z"/></g><g><path fill="#0957c3" d="M280.21 43.148c0 6.79 1.66 10.561 9.561 10.561 7.971 0 9.355-4.354 9.355-11.212V15.4h11.342v26.196c0 14.283-5.705 21.073-20.714 21.073-14.403 0-20.904-5.372-20.904-20.69V15.4h11.36z"/></g><g><path fill="#0957c3" d="M328.279 44.676l6.24-17.686 6.174 17.686zm.051-29.266l-18.12 46.435h12.086l2.853-8.259h18.587l2.922 8.26h12.346l-18.19-46.436z"/></g><g><path fill="#fe5000" d="M9.382 11.44L-.05 27.204 69.114 65.74l9.432-15.764z"/></g><g><path fill="#0957c3" d="M48.684.06H29.82v77.07h18.864z"/></g><g><path fill="#47d7ac" d="M-.06 49.965l9.432 15.764 69.164-38.535-9.432-15.764z"/></g></g></g></svg>