<svg xmlns="http://www.w3.org/2000/svg" width="360" height="116" viewBox="0 0 360 116"><defs><linearGradient id="hkd4a" x1="6.19" x2="89.61" y1="4.39" y2="128.66" gradientUnits="userSpaceOnUse"><stop offset="0" stop-color="#47d3ff"/><stop offset="1" stop-color="#2195ea"/></linearGradient></defs><g><g><g><path d="M172.36 100.447L146.81 63.702 171.322 28.8h-18.904L130.19 59.915V28.8h-16.62v71.647h16.62V67.285l23.267 33.162z"/></g><g><path d="M212.507 49.27v27.942c0 7.267-3.947 10.543-9.66 10.543-4.986 0-9.037-2.969-9.037-9.314V49.27h-15.58v31.422c0 13.818 8.932 21.187 19.423 21.187 6.856 0 12.05-2.456 14.854-6.243v4.81h15.58V49.27z"/></g><g><path d="M272.864 47.84c-6.855 0-12.049 2.456-14.854 6.244v-4.811h-15.58v51.176h15.58V72.507c0-7.267 3.948-10.542 9.66-10.542 4.986 0 9.037 2.968 9.037 9.314v29.17h15.58V69.027c0-13.818-8.932-21.187-19.423-21.187z"/></g><g><path d="M331.242 87.358c-7.167 0-12.361-4.812-12.361-12.492 0-7.68 5.194-12.492 12.36-12.492 7.167 0 12.361 4.813 12.361 12.492 0 7.68-5.194 12.492-12.36 12.492zm12.36-38.085v4.81c-3.427-3.889-8.517-6.243-15.477-6.243-13.607 0-24.825 11.77-24.825 27.021 0 15.251 11.218 27.021 24.825 27.021 6.96 0 12.05-2.353 15.477-6.243v4.81h15.58V49.273z"/></g><g><path fill="#312a7d" d="M70.6 116c11.228 0 17.816-12.411 11.39-21.457l-24.23-34.11a6.726 6.726 0 0 1 .019-7.836L80.082 21.51C86.57 12.469 79.988 0 68.73 0H13.89C6.22 0 0 6.11 0 13.647v88.706C0 110.2 5.36 116 13.846 116H70.6z"/></g><g><path fill="url(#hkd4a)" d="M0 102.353c0 7.396 4.762 12.974 12.416 13.59C34.985 84.455 57.512 52.97 80.082 21.51 86.57 12.469 79.988 0 68.73 0H13.89C6.22 0 0 6.11 0 13.647z"/></g></g></g></svg>