<svg xmlns="http://www.w3.org/2000/svg" width="360" height="50" viewBox="0 0 360 50"><g><g><g><path fill="#0000dc" d="M80.573 30.487H65.327a7.26 7.26 0 0 0-7.26 7.26v5.808h-2.904v-5.808a10.164 10.164 0 0 1 10.164-10.164h15.246a9.438 9.438 0 0 0 0-18.876H60.971V5.803h19.602a12.342 12.342 0 0 1 0 24.684zm10.59 13.058h-3.251L82.86 33.152c.988-.151 1.96-.394 2.903-.726zM60.97 11.61h19.596a6.533 6.533 0 0 1 0 13.064H65.325c-1.488.015-2.962.29-4.355.813zm34.838 6.532A15.242 15.242 0 0 0 80.566 2.9h-22.5v23.98a13.76 13.76 0 0 0-2.903 2.904V2.9H52.26v43.548h8.71v-8.71a4.355 4.355 0 0 1 4.355-4.354H79.84l5.603 11.439a2.903 2.903 0 0 0 2.584 1.625h7.78l-7.46-15.27a15.214 15.214 0 0 0 7.46-13.036z"/></g><g><path fill="#0000dc" d="M30.489 5.803h10.166v2.904H30.49a7.262 7.262 0 0 0-7.262 7.26v27.588h-2.904V15.967A10.163 10.163 0 0 1 30.489 5.803zM0 5.803h22.384a13.092 13.092 0 0 0-2.903 2.903H0v2.904h18.232a12.745 12.745 0 0 0-.813 4.355v30.483h8.71V15.965a4.355 4.355 0 0 1 4.355-4.355h10.161a2.903 2.903 0 0 0 2.903-2.904V2.9H0z"/></g><g><path fill="#0000dc" d="M335.327 8.71a15.97 15.97 0 0 1 15.661 19.083 15.968 15.968 0 1 1-15.66-19.083zm0 37.742a21.803 21.803 0 0 1-21.774-21.775v-1.916a18.9 18.9 0 0 1 18.871-16.955c.483-.03.968-.03 1.452 0A18.844 18.844 0 0 0 317.08 29.17a18.841 18.841 0 0 0 37.118-4.58 21.716 21.716 0 0 0-20.322-21.687c.493-.029.987-.029 1.48 0a21.776 21.776 0 0 1 15.397 37.171 21.776 21.776 0 0 1-15.397 6.378zm0-46.452a24.65 24.65 0 0 0-24.677 24.503v.174A24.678 24.678 0 1 0 335.327 0z"/></g><g><path fill="#0000dc" d="M110.313 38.9l-2.261 4.645h-3.247l2.899-5.806h3.45c-.314.362-.595.75-.841 1.161zm8.05-9.871l6.62-13.558a1.452 1.452 0 0 1 1.306-.813 1.42 1.42 0 0 1 1.277.813l6.649 13.558zm-6.445 0l11.148-22.82 2.73 5.633a4.244 4.244 0 0 0-3.426 2.38l-7.23 14.807zM127.886 2.9l19.887 40.645h-3.252L124.663 2.9h-3.222l-14.197 29.032h28.364l1.423 2.903h-29.38a2.904 2.904 0 0 0-2.614 1.626l-4.877 9.987h7.897a2.906 2.906 0 0 0 2.584-1.625l2.264-4.646a4.387 4.387 0 0 1 3.92-2.438h21.629l3.454 7.084a2.903 2.903 0 0 0 2.613 1.625h7.897L131.138 2.9z"/></g><g><path fill="#0000dc" d="M197.417 5.803v36.794l-5.98-7.957a4.264 4.264 0 0 0 2.903-4.124V5.803zm-5.806 0v24.678a1.366 1.366 0 0 1-1.016 1.364 1.422 1.422 0 0 1-1.597-.464L167.659 2.9h-3.629l32.661 43.548h3.63V2.9h-5.807a2.9 2.9 0 0 0-2.903 2.903z"/></g><g><path fill="#0000dc" d="M165.48 14.747a4.239 4.239 0 0 0-2.904 4.124v24.684h-2.903V6.761l5.807 7.957zM156.77 2.9v43.548h5.806a2.901 2.901 0 0 0 2.904-2.903V18.868a1.424 1.424 0 0 1 .987-1.452 1.452 1.452 0 0 1 1.626.523l21.338 28.51h3.63L160.398 2.9z"/></g><g><path fill="#0000dc" d="M249.685 43.547h-36.794l7.957-5.98a4.298 4.298 0 0 0 4.153 2.903h24.684zm-.01-5.806h-24.677a1.424 1.424 0 0 1-1.394-.987 1.452 1.452 0 0 1 .523-1.626l28.451-21.339V10.16L209.03 42.821v3.63h43.548v-5.807a2.902 2.902 0 0 0-2.903-2.903z"/></g><g><path fill="#0000dc" d="M211.933 5.803h36.794l-7.957 5.952v-.145a4.269 4.269 0 0 0-4.153-2.904h-24.684zm-2.903 2.903a2.902 2.902 0 0 0 2.903 2.904h24.678a1.45 1.45 0 0 1 .87 2.584L209.03 35.56v3.63l43.548-32.662V2.9H209.03z"/></g><g><path fill="#0000dc" d="M301.945 43.547h-36.794l7.957-5.98a4.298 4.298 0 0 0 4.153 2.903h24.684zm-.01-5.806h-24.677a1.424 1.424 0 0 1-1.394-.987 1.393 1.393 0 0 1 .523-1.626l28.451-21.339V10.16L261.29 42.821v3.63h43.548v-5.807a2.902 2.902 0 0 0-2.903-2.903z"/></g><g><path fill="#0000dc" d="M264.193 5.803h36.765l-7.928 5.952v-.145a4.298 4.298 0 0 0-4.153-2.904h-24.684zm-2.903 2.903a2.902 2.902 0 0 0 2.903 2.904h24.678a1.45 1.45 0 0 1 .87 2.584L261.29 35.56v3.63l43.548-32.662V2.9H261.29z"/></g></g></g></svg>