<?xml version="1.0" encoding="UTF-8"?>
<svg width="35px" height="20px" viewBox="0 0 35 20" version="1.1" xmlns="http://www.w3.org/2000/svg" xmlns:xlink="http://www.w3.org/1999/xlink">
    <!-- Generator: Sketch 52.1 (67048) - http://www.bohemiancoding.com/sketch -->
    <title>arrow-left</title>
    <desc>Created with Sketch.</desc>
    <g id="Page-1" stroke="none" stroke-width="1" fill="none" fill-rule="evenodd">
        <g id="Landing-2" transform="translate(-121.000000, -1006.000000)" fill="#000000" fill-rule="nonzero">
            <g id="top">
                <path d="M131.703099,1025.68751 C131.494766,1025.89585 131.273413,1026.00001 131.039039,1026.00001 C130.804664,1026.00001 130.583311,1025.89585 130.374978,1025.68751 L121.312499,1016.62503 C121.104166,1016.46878 121,1016.26045 121,1016.00004 C121,1015.73962 121.104166,1015.53129 121.312499,1015.37504 L130.374978,1006.31256 C130.583311,1006.10423 130.804664,1006.00006 131.039039,1006.00006 C131.273413,1006.00006 131.494766,1006.10423 131.703099,1006.31256 L132.249973,1006.85943 C132.458306,1007.01568 132.562472,1007.22402 132.562472,1007.48443 C132.562472,1007.74485 132.458306,1007.97922 132.249973,1008.18755 L125.687489,1014.67191 L155.062419,1014.67191 C155.322834,1014.67191 155.544189,1014.76306 155.72648,1014.94535 C155.908771,1015.12764 155.999917,1015.349 155.999917,1015.60941 L155.999917,1016.39066 C155.999917,1016.65108 155.908771,1016.87243 155.72648,1017.05472 C155.544189,1017.23701 155.322834,1017.32816 155.062419,1017.32816 L125.687489,1017.32816 L132.249973,1023.81252 C132.458306,1024.02085 132.562472,1024.25522 132.562472,1024.51564 C132.562472,1024.77606 132.458306,1024.98439 132.249973,1025.14064 L131.703099,1025.68751 Z" id="arrow-left"></path>
            </g>
        </g>
    </g>
</svg>
