<svg width="922" height="1301" viewBox="0 0 922 1301" fill="none" xmlns="http://www.w3.org/2000/svg">
<path fill-rule="evenodd" clip-rule="evenodd" d="M339.858 2.9249C300.654 9.95138 265.057 26.429 231.879 44.6965C169.633 78.9694 113.427 120.382 65.4779 167.304C39.6111 192.62 15.6521 220.353 5.71191 252.177C-4.70579 285.519 1.05943 320.627 7.72711 354.592C14.8263 390.749 23.4062 427.886 48.1165 458.583C75.118 492.129 118.67 514.611 150.278 545.427C208.362 602.047 220.434 681.11 213.017 754.387C205.602 827.662 181.284 899.427 176.224 972.834C170.84 1050.92 188.828 1132.18 243.306 1196.85C297.784 1261.52 392.622 1306.66 489.185 1300.43C547.032 1296.7 600.956 1275.65 650.793 1251.64C743.387 1207.04 831.541 1146.09 863.983 1063.07C888.501 1000.32 878.357 932.684 870.198 867.221C857.134 762.423 849.862 656.038 871.985 552.237C890.262 466.471 928.573 381.907 921.029 295.096C916.343 241.155 894.078 189.356 872.007 138.303C861.204 113.309 849.645 87.34 826.056 68.954C779.463 32.6349 703.6 38.3916 642.53 55.8013C620.12 62.1911 596.921 69.9409 573.413 67.1059C484.983 56.4432 441.013 -15.2046 339.858 2.9249Z" fill="#F3F7F9"/>
</svg>
