<svg width="1178" height="835" viewBox="0 0 1178 835" fill="none" xmlns="http://www.w3.org/2000/svg">
<path fill-rule="evenodd" clip-rule="evenodd" d="M1175.35 527.211C1168.99 562.716 1154.07 594.954 1137.53 625.001C1106.5 681.374 1069 732.276 1026.51 775.701C1003.59 799.127 978.48 820.825 949.665 829.827C919.474 839.262 887.686 834.041 856.932 828.002C824.194 821.573 790.567 813.802 762.772 791.424C732.398 766.97 712.041 727.527 684.139 698.902C632.872 646.299 561.284 635.366 494.935 642.083C428.587 648.798 363.608 670.822 297.14 675.404C226.432 680.28 152.863 663.99 94.3047 614.652C35.7479 565.315 -5.1217 479.426 0.519897 391.975C3.89709 339.586 22.9515 290.75 44.6899 245.616C85.0745 161.759 140.265 81.9235 215.439 52.5422C272.25 30.3382 333.494 39.5248 392.768 46.9143C487.658 58.7454 583.986 65.3314 677.973 45.2956C755.63 28.7432 832.199 -5.95245 910.803 0.879578C959.644 5.1228 1006.55 25.2875 1052.77 45.2758C1075.4 55.0596 1098.92 65.5278 1115.57 86.8907C1148.45 129.087 1143.24 197.792 1127.47 253.099C1121.69 273.395 1114.67 294.404 1117.24 315.694C1126.89 395.78 1191.77 435.601 1175.35 527.211Z" fill="#F3F7F9"/>
</svg>
