<?xml version="1.0" encoding="UTF-8"?>
<svg width="38px" height="70px" viewBox="0 0 38 70" version="1.1" xmlns="http://www.w3.org/2000/svg" xmlns:xlink="http://www.w3.org/1999/xlink">
    <!-- Generator: Sketch 52.1 (67048) - http://www.bohemiancoding.com/sketch -->
    <title>she_left</title>
    <desc>Created with Sketch.</desc>
    <g id="Page-1" stroke="none" stroke-width="1" fill="none" fill-rule="evenodd">
        <g id="Landing-2" transform="translate(-83.000000, -5033.000000)" fill="#000000" fill-rule="nonzero">
            <path d="M84.8124933,5033.62515 C85.1249925,5033.31265 85.541659,5033.1564 86.0624903,5033.1564 C86.5833216,5033.1564 86.9999881,5033.31265 87.3124873,5033.62515 L120.437408,5066.75007 C120.749908,5067.06257 120.906157,5067.47924 120.906157,5068.00007 C120.906157,5068.5209 120.749908,5068.93757 120.437408,5069.25007 L87.3124873,5102.37499 C86.9999881,5102.68749 86.5833216,5102.84374 86.0624903,5102.84374 C85.541659,5102.84374 85.1249925,5102.68749 84.8124933,5102.37499 L83.5624963,5101.12499 C83.249997,5100.81249 83.0937474,5100.39583 83.0937474,5099.875 C83.0937474,5099.35416 83.249997,5098.88542 83.5624963,5098.46875 L114.187423,5068.00007 L83.5624963,5037.53139 C83.249997,5037.11473 83.0937474,5036.64598 83.0937474,5036.12515 C83.0937474,5035.60432 83.249997,5035.18765 83.5624963,5034.87515 L84.8124933,5033.62515 Z" id="she_left" transform="translate(101.999952, 5068.000072) scale(-1, 1) translate(-101.999952, -5068.000072) "></path>
        </g>
    </g>
</svg>
