<svg width="160" height="54" viewBox="0 0 160 54" xmlns="http://www.w3.org/2000/svg">
    <title>
        Group
    </title>
    <g fill="none" fill-rule="evenodd">
        <g fill="#FFF" fill-rule="nonzero">
            <path d="M63.312 15.903v-2.127c0-.2.08-.361.202-.521.122-.12.284-.201.527-.201h16.326c.202 0 .364.08.527.2.121.161.202.322.202.522v2.127c0 .2-.08.36-.202.521-.122.16-.325.201-.527.201h-6.198v22.028c0 .2-.081.361-.203.482a.645.645 0 0 1-.486.2h-2.512a.674.674 0 0 1-.486-.2.632.632 0 0 1-.202-.482V16.585h-6.198c-.203 0-.365-.08-.527-.2a.57.57 0 0 1-.243-.482z"/>
            <path d="M85.147 38.653V13.776c0-.2.081-.361.203-.521.121-.12.324-.201.526-.201h15.151c.203 0 .365.08.527.2.122.161.203.322.203.522v2.127c0 .2-.081.36-.203.521-.122.16-.324.201-.527.201h-11.95v7.664h10.087a.58.58 0 0 1 .486.24c.162.161.203.321.203.482v2.086c0 .201-.081.362-.203.522a.774.774 0 0 1-.527.2H89.036v8.026h11.95c.203 0 .365.08.527.2.163.12.203.321.203.482v2.086c0 .2-.081.361-.203.522-.121.16-.324.2-.526.2H85.836c-.203 0-.365-.08-.527-.2a.855.855 0 0 1-.162-.482z"/>
            <path d="M103.904 38.372l11.626-25.278c.04-.12.162-.2.284-.28a.658.658 0 0 1 .364-.121h.365c.081 0 .202.04.365.12.121.08.243.16.283.281l11.586 25.278c.122.241.122.482-.04.682-.122.201-.324.321-.608.321h-2.39c-.405 0-.689-.2-.85-.561l-2.35-5.096h-12.437c-.243.562-.648 1.404-1.175 2.568a52.672 52.672 0 0 0-1.134 2.568c-.162.361-.446.562-.851.562h-2.39c-.284 0-.486-.12-.608-.321a.669.669 0 0 1-.04-.723zm7.697-7.944h9.48l-4.66-10.312h-.202L111.6 30.428z"/>
            <path d="M130.722 38.493l4.699-25.238c.04-.16.121-.281.243-.402a.613.613 0 0 1 .446-.16h.607c.122 0 .243.04.405.12.122.08.203.16.243.281l7.94 19.18h.163l7.9-19.18c.04-.12.12-.2.242-.28a.689.689 0 0 1 .405-.121h.608c.162 0 .284.04.405.16.122.12.203.241.243.402l4.659 25.238c.08.28.04.481-.081.642-.122.16-.324.24-.608.24h-2.471a.613.613 0 0 1-.446-.16.743.743 0 0 1-.283-.361l-2.795-16.772h-.122l-6.846 17.253c-.081.281-.284.402-.648.402h-.69c-.323 0-.526-.12-.647-.402l-6.887-17.253h-.162l-2.755 16.772a.947.947 0 0 1-.243.361.679.679 0 0 1-.446.16h-2.47c-.487 0-.73-.24-.73-.682.081-.08.122-.12.122-.2z"/>
        </g>
        <circle cx="27.571" cy="27.571" r="24.859"/>
        <path d="M19.547 51.192l13.748-21.74-23.747.08c-.484 0-.686-.565-.323-.888L38.698 4.52l.968.161-16.41 19.033c-.161.161-.04.404.202.404h20.36c.323 0 .565.323.444.646l-12.055 28.57-13.426-.85.766-1.292z" fill="#FFF" fill-rule="nonzero"/>
        <circle stroke="#FFF" stroke-width="2.5" cx="27" cy="27" r="25.75"/>
    </g>
</svg>
