<svg width="1178" height="835" viewBox="0 0 1178 835" fill="none" xmlns="http://www.w3.org/2000/svg">
<path fill-rule="evenodd" clip-rule="evenodd" d="M2.64837 527.211C9.01055 562.716 23.9304 594.954 40.4708 625.001C71.5034 681.374 109.001 732.276 151.486 775.701C174.41 799.127 199.52 820.825 228.335 829.827C258.526 839.262 290.314 834.041 321.068 828.002C353.806 821.573 387.433 813.802 415.228 791.424C445.602 766.97 465.959 727.527 493.861 698.902C545.128 646.299 616.716 635.366 683.065 642.083C749.413 648.798 814.392 670.822 880.86 675.404C951.568 680.28 1025.14 663.99 1083.7 614.652C1142.25 565.315 1183.12 479.426 1177.48 391.975C1174.1 339.586 1155.05 290.75 1133.31 245.616C1092.93 161.759 1037.73 81.9235 962.561 52.5422C905.75 30.3382 844.506 39.5248 785.232 46.9143C690.342 58.7454 594.014 65.3314 500.027 45.2956C422.37 28.7432 345.801 -5.95245 267.197 0.879578C218.356 5.1228 171.454 25.2875 125.227 45.2758C102.597 55.0596 79.0826 65.5278 62.4349 86.8907C29.5495 129.087 34.7619 197.792 50.5257 253.099C56.3113 273.395 63.3285 294.404 60.7615 315.694C51.1069 395.78 -13.7671 435.601 2.64837 527.211Z" fill="#F3F7F9"/>
</svg>
