<svg width="160" height="52" viewBox="0 0 160 52" xmlns="http://www.w3.org/2000/svg">
    <title>
        Group
    </title>
    <defs>
        <linearGradient x1="83.937%" y1="33.488%" x2="25.396%" y2="80.999%" id="a">
            <stop stop-color="#FFBD00" offset="0%"/>
            <stop stop-color="#E10400" offset="100%"/>
        </linearGradient>
        <linearGradient x1="92.886%" y1="15.239%" x2="21.466%" y2="80.169%" id="b">
            <stop stop-color="#DD6200" offset="0%"/>
            <stop stop-color="#C30200" offset="100%"/>
        </linearGradient>
        <linearGradient x1="77.53%" y1="16.644%" x2="29.148%" y2="70.39%" id="c">
            <stop stop-color="#FFBD00" offset="0%"/>
            <stop stop-color="#C30200" offset="100%"/>
        </linearGradient>
        <linearGradient x1="67.391%" y1="12.256%" x2="31.646%" y2="91.193%" id="d">
            <stop stop-color="#FFBD00" offset="0%"/>
            <stop stop-color="#E10400" offset="100%"/>
        </linearGradient>
    </defs>
    <g transform="translate(0 .397)" fill="none" fill-rule="evenodd">
        <g fill="#E10400" fill-rule="nonzero">
            <path d="M63.431 15.49v-2.02c0-.19.081-.343.203-.496.12-.114.283-.19.526-.19h16.305c.202 0 .364.076.526.19.122.153.202.305.202.496v2.02c0 .19-.08.343-.202.496-.121.152-.324.19-.526.19h-6.19v20.929c0 .19-.081.343-.203.457a.662.662 0 0 1-.485.19h-2.509a.69.69 0 0 1-.485-.19.586.586 0 0 1-.203-.457V16.138H64.2c-.202 0-.364-.076-.526-.19a.534.534 0 0 1-.243-.458z"/>
            <path d="M85.24 37.105V13.47c0-.19.08-.343.202-.496a.796.796 0 0 1 .526-.19H101.1c.202 0 .364.076.526.19.122.153.202.305.202.496v2.02c0 .19-.08.343-.202.496-.121.152-.324.19-.526.19H89.164v7.282H99.24a.59.59 0 0 1 .485.228.586.586 0 0 1 .203.458v1.982c0 .19-.081.343-.203.496a.796.796 0 0 1-.526.19H89.124v7.624h11.936c.202 0 .364.077.526.19.162.115.202.306.202.458v1.983c0 .19-.081.343-.202.495-.122.153-.324.19-.526.19H85.927c-.202 0-.364-.075-.526-.19a.787.787 0 0 1-.161-.457z"/>
            <path d="M103.973 36.838l11.612-24.016c.04-.114.162-.19.283-.267a.68.68 0 0 1 .364-.114h.365c.08 0 .202.038.364.114.121.076.242.153.283.267l11.572 24.016c.121.229.121.457-.04.648-.122.19-.324.305-.608.305h-2.387c-.404 0-.688-.19-.85-.534l-2.346-4.841h-12.422c-.242.534-.647 1.334-1.173 2.44a48.826 48.826 0 0 0-1.133 2.44c-.162.342-.445.533-.85.533h-2.387c-.283 0-.485-.114-.607-.305a.61.61 0 0 1-.04-.686zm7.687-7.548h9.468l-4.653-9.797h-.202l-4.613 9.797z"/>
            <path d="M130.758 36.952l4.693-23.978a.784.784 0 0 1 .243-.38.631.631 0 0 1 .445-.153h.607c.121 0 .243.038.405.114.121.076.202.153.242.267l7.93 18.222h.162l7.89-18.222c.04-.114.122-.19.243-.267a.714.714 0 0 1 .405-.114h.607c.161 0 .283.038.404.152a.784.784 0 0 1 .243.381l4.653 23.978c.08.267.04.458-.081.61-.121.153-.324.229-.607.229h-2.468a.631.631 0 0 1-.445-.153.711.711 0 0 1-.283-.343l-2.792-15.934h-.121l-6.838 16.392c-.081.267-.284.381-.648.381h-.687c-.324 0-.526-.114-.648-.381l-6.878-16.392h-.162l-2.751 15.934a.898.898 0 0 1-.243.343.7.7 0 0 1-.445.153h-2.468c-.486 0-.729-.229-.729-.648.081-.076.122-.114.122-.19z"/>
        </g>
        <ellipse cx="27.17" cy="25.764" rx="25.157" ry="23.856"/>
        <path d="M19.554 48.565l13.735-20.4-23.725.077c-.483 0-.684-.531-.322-.834L38.686 4.77l.967.152L23.26 22.782c-.16.151-.04.379.202.379h20.341c.322 0 .564.303.443.607L32.201 50.575l-13.413-.797.766-1.213z" fill="url(#a)" fill-rule="nonzero"/>
        <path d="M19.64 49.11l13.847-20.653-23.919.077c-.487 0-.69-.537-.324-.845L38.888 4.771h.082L17.122 25.463c-.163.153-.04.384.203.384h21.442c.325 0 .568.307.446.614L25.65 51.529l-6.66-1.382.65-1.037z" fill="url(#b)" fill-rule="nonzero"/>
        <path d="M27.253 0C12.189 0 0 11.57 0 25.784c0 13.715 11.298 24.94 25.593 25.745l1.133-2.069c-3.199-.076-6.276-.69-9.192-1.839a24.838 24.838 0 0 1-7.937-5.057 23.568 23.568 0 0 1-5.345-7.509c-1.296-2.912-1.984-6.015-1.984-9.195 0-3.18.648-6.283 1.984-9.195 1.255-2.835 3.078-5.363 5.345-7.509 2.308-2.183 4.981-3.869 7.937-5.057a26.207 26.207 0 0 1 9.719-1.877c3.36 0 6.64.613 9.719 1.877.566.23 1.133.46 1.66.728l1.62-1.609C36.405 1.15 31.95 0 27.252 0z" fill="url(#c)" fill-rule="nonzero"/>
        <path d="M31.882 0L30.62 1.97c2.078.309 4.116.85 6.073 1.622a24.993 24.993 0 0 1 7.988 5.1 23.762 23.762 0 0 1 5.38 7.57c1.304 2.936 1.997 6.065 1.997 9.27 0 3.207-.652 6.336-1.997 9.271-1.263 2.859-3.097 5.408-5.38 7.571-2.323 2.202-5.013 3.902-7.988 5.1a26.337 26.337 0 0 1-9.782 1.892h-.57l-1.183 2.086c.53.038 1.182.077 1.753.077 15.162 0 27.43-11.666 27.43-25.996C54.34 12.824 44.68 2.24 31.882 0z" fill="url(#d)" fill-rule="nonzero"/>
    </g>
</svg>
