<?xml version="1.0" encoding="UTF-8"?><!DOCTYPE svg PUBLIC "-//W3C//DTD SVG 1.1//EN" "http://www.w3.org/Graphics/SVG/1.1/DTD/svg11.dtd"><svg xmlns="http://www.w3.org/2000/svg" xmlns:xlink="http://www.w3.org/1999/xlink">
<symbol id="icon-arrow-left" viewBox="0 0 35 20">
    <title>
        arrow-left
    </title>
    <path d="M10.703 19.688c-.208.208-.43.312-.664.312-.234 0-.456-.104-.664-.312L.312 10.625A.742.742 0 0 1 0 10c0-.26.104-.469.312-.625L9.375.313c.208-.209.43-.313.664-.313.234 0 .456.104.664.313l.547.546a.742.742 0 0 1 .312.625c0 .26-.104.495-.312.704L4.687 8.672h29.375c.26 0 .482.091.664.273A.904.904 0 0 1 35 9.61v.782c0 .26-.091.481-.274.664a.904.904 0 0 1-.664.273H4.687l6.563 6.485c.208.208.312.442.312.703 0 .26-.104.468-.312.625l-.547.547z" fill-rule="nonzero"/>
</symbol>
<symbol id="icon-arrow-right" viewBox="0 0 35 20">
    <title>
        arrow-right
    </title>
    <path d="M24.297 19.688c.208.208.43.312.664.312.234 0 .456-.104.664-.312l9.062-9.063A.742.742 0 0 0 35 10a.742.742 0 0 0-.313-.625L25.625.313C25.417.104 25.195 0 24.96 0c-.234 0-.456.104-.664.313l-.547.546a.742.742 0 0 0-.313.625c0 .26.105.495.313.704l6.562 6.484H.937a.904.904 0 0 0-.664.273A.904.904 0 0 0 0 9.61v.782c0 .26.091.481.273.664a.904.904 0 0 0 .664.273h29.375l-6.562 6.485c-.208.208-.313.442-.313.703 0 .26.105.468.313.625l.547.547z" fill-rule="nonzero"/>
</symbol><symbol id="icon-bracket" viewBox="0 0 58 244">
    <title>
        }
    </title>
    <path d="M57.4 118.96v5.6h-5.32c-10.36 0-15.4 6.44-15.4 20.16v70c0 19.6-10.92 28.56-34.44 28.56H.84v-5.6c20.72 0 30.24-7.28 30.24-22.96v-70c0-13.16 3.08-20.16 11.2-22.96-8.12-2.8-11.2-9.8-11.2-22.96v-70c0-15.68-9.52-22.96-30.24-22.96V.24h1.4C25.76.24 36.68 9.2 36.68 28.8v70c0 13.72 5.04 20.16 15.4 20.16h5.32z" fill-rule="nonzero"/>
</symbol><symbol id="icon-facebook" viewBox="0 0 42 42">
    <title>
        facebook
    </title>
    <path d="M42 4.5v33c0 1.25-.438 2.312-1.313 3.187S38.75 42 37.5 42H29.53V25.406h5.625L36 19.031H29.53V15c0-1 .188-1.75.563-2.25.5-.563 1.343-.844 2.53-.844H36V6.281C34.687 6.094 33.062 6 31.125 6c-2.5 0-4.484.734-5.953 2.203-1.469 1.469-2.203 3.516-2.203 6.14v4.688H17.25v6.375h5.719V42H4.5c-1.25 0-2.313-.438-3.188-1.313S0 38.75 0 37.5v-33c0-1.25.437-2.313 1.312-3.188S3.25 0 4.5 0h33c1.25 0 2.312.438 3.187 1.313C41.562 2.187 42 3.25 42 4.5z" fill-rule="nonzero"/>
</symbol><symbol id="icon-fb" viewBox="0 0 17 32">
    <title>
        fb
    </title>
    <path d="M4.812 32V17.688H0V12h4.812V7.5c0-2.375.667-4.219 2-5.531C8.146.656 9.917 0 12.125 0c1.792 0 3.25.083 4.375.25v5.063h-3c-1.125 0-1.896.25-2.313.75-.333.416-.5 1.083-.5 2V12H16l-.75 5.688h-4.563V32H4.812z" fill-rule="nonzero"/>
</symbol><symbol id="icon-left" viewBox="0 0 38 70">
    <title>
        she_left
    </title>
    <path d="M36.187.625c-.312-.312-.729-.469-1.25-.469-.52 0-.937.157-1.25.47L.562 33.75c-.312.313-.468.73-.468 1.25s.156.938.468 1.25l33.125 33.125c.313.312.73.469 1.25.469.521 0 .938-.157 1.25-.469l1.25-1.25c.313-.313.47-.73.47-1.25s-.157-.99-.47-1.406L6.812 35 37.437 4.531c.313-.416.47-.885.47-1.406 0-.52-.157-.937-.47-1.25l-1.25-1.25z" fill-rule="nonzero"/>
</symbol><symbol id="icon-linkedin" viewBox="0 0 42 42">
    <title>
        linked
    </title>
    <path d="M39 0c.812 0 1.516.297 2.11.89.593.594.89 1.297.89 2.11v36c0 .812-.297 1.516-.89 2.11-.594.593-1.298.89-2.11.89H3c-.813 0-1.516-.297-2.11-.89C.298 40.515 0 39.811 0 39V3C0 2.187.297 1.484.89.89 1.485.298 2.188 0 3 0h36zM6.469 36h6.281V15.937H6.469V36zm3.093-22.781c1 0 1.86-.36 2.579-1.078.718-.72 1.078-1.563 1.078-2.532 0-.968-.36-1.812-1.078-2.53C11.42 6.358 10.562 6 9.562 6c-1 0-1.843.36-2.53 1.078C6.343 7.797 6 8.641 6 9.61c0 .97.344 1.813 1.031 2.532.688.718 1.531 1.078 2.531 1.078zM36 35.999V25.032c0-3.125-.438-5.406-1.313-6.844-1.187-1.812-3.218-2.718-6.093-2.718-1.438 0-2.72.343-3.844 1.031-.938.562-1.625 1.281-2.063 2.156h-.093v-2.719h-6V36h6.187v-9.938c0-1.562.219-2.75.656-3.562.625-1.063 1.657-1.594 3.094-1.594 1.438 0 2.375.594 2.813 1.781.312.75.468 1.938.468 3.563V36H36z" fill-rule="nonzero"/>
</symbol><symbol id="icon-ln" viewBox="0 0 28 28">
    <title>
        ln
    </title>
    <path d="M6.25 28H.437V9.313H6.25V28zM3.375 6.75c-.917 0-1.708-.333-2.375-1S0 4.292 0 3.375.333 1.667 1 1s1.458-1 2.375-1S5.083.333 5.75 1s1 1.458 1 2.375-.333 1.708-1 2.375-1.458 1-2.375 1zM28 28h-5.813v-9.125c0-1.5-.125-2.583-.375-3.25-.458-1.125-1.354-1.687-2.687-1.687-1.333 0-2.27.5-2.813 1.5-.416.75-.625 1.854-.625 3.312V28h-5.75V9.313H15.5v2.562h.062c.417-.833 1.084-1.52 2-2.062 1-.667 2.167-1 3.5-1 2.709 0 4.605.854 5.688 2.562.833 1.375 1.25 3.5 1.25 6.375V28z" fill-rule="nonzero"/>
</symbol><symbol id="icon-mouse" viewBox="0 0 40 93">
    <g fill-rule="evenodd">
        <path d="M30.172 81.392c.219.216.328.446.328.69 0 .242-.11.472-.328.688l-9.516 9.406A.783.783 0 0 1 20 92.5a.783.783 0 0 1-.656-.324L9.828 82.77c-.219-.216-.328-.446-.328-.689 0-.243.11-.473.328-.69l.574-.567a.783.783 0 0 1 .657-.324c.273 0 .52.108.738.324L20 88.925l8.203-8.1c.219-.217.465-.325.738-.325.274 0 .493.108.657.324l.574.568z"/>
        <path d="M20 3C10.611 3 3 10.611 3 20v24c0 9.389 7.611 17 17 17s17-7.611 17-17V20c0-9.389-7.611-17-17-17zm0-3c11.046 0 20 8.954 20 20v24c0 11.046-8.954 20-20 20S0 55.046 0 44V20C0 8.954 8.954 0 20 0z" fill-rule="nonzero"/>
        <path d="M20 27.5a7.5 7.5 0 1 1 0-15 7.5 7.5 0 0 1 0 15zm0-3a4.5 4.5 0 1 0 0-9 4.5 4.5 0 0 0 0 9z" fill-rule="nonzero"/>
    </g>
</symbol><symbol id="icon-right" viewBox="0 0 38 70">
    <title>
        she_left
    </title>
    <path d="M1.812.625c.313-.312.73-.469 1.25-.469.521 0 .938.157 1.25.47L37.437 33.75c.313.313.47.73.47 1.25s-.157.938-.47 1.25L4.312 69.375c-.312.312-.729.469-1.25.469-.52 0-.937-.157-1.25-.469l-1.25-1.25c-.312-.313-.468-.73-.468-1.25s.156-.99.469-1.406L31.186 35 .562 4.531a2.285 2.285 0 0 1-.468-1.406c0-.52.156-.937.469-1.25l1.25-1.25z" fill-rule="nonzero"/>
</symbol><symbol id="icon-telegram" viewBox="0 0 37 34">
    <path d="M5.585 15.434l5.75 2.33a1.5 1.5 0 0 1 .883.995l.78 2.858c.054-.295.196-.578.431-.806L28.256 6.397l-22.67 9.037zm7.756 7.435a1.504 1.504 0 0 1-.342-1.252l.342 1.252zm1.005 3.682l2.066-1.526-2.783-1.9a1.508 1.508 0 0 1-.288-.256l1.005 3.682zm.02 3.713a1.5 1.5 0 0 1-2.337-.811l-2.51-9.187L1 16.813c-1.253-.508-1.248-2.283.008-2.784L34.184.804c1.102-.44 2.254.515 2.028 1.68l-5.76 29.592a1.5 1.5 0 0 1-2.319.952l-9.096-6.21-4.67 3.446zm2.47-8.582l11.106 7.583 4.413-22.67-15.519 15.087z" fill-rule="nonzero"/>
</symbol>

<symbol id="icon-tg" viewBox="0 0 28 24">
    <title>
        tg
    </title>
    <path d="M27.937 2.188l-4.25 19.875c-.166.708-.447 1.156-.843 1.343-.396.188-.886.115-1.47-.218l-6.437-4.75-3.125 3a3.66 3.66 0 0 1-.5.437c-.208.125-.479.188-.812.188L11 15.5 22.937 4.688c.167-.125.22-.24.157-.344-.063-.104-.188-.146-.375-.125-.188.02-.386.094-.594.219L7.375 13.75 1 11.75c-.708-.208-1.042-.52-1-.937.042-.417.48-.792 1.313-1.125L26.125.125c.625-.208 1.125-.135 1.5.219s.48.969.312 1.844z" fill-rule="nonzero"/>
</symbol>

<symbol id="icon-instagram" viewBox="0 0 512 512">
    <title>
        instagram
    </title>
    <path d="M363.273 0H148.728C66.719 0 0 66.719 0 148.728v214.544C0 445.281 66.719 512 148.728 512h214.544C445.281 512 512 445.281 512 363.273V148.728C512 66.719 445.281 0 363.273 0zM472 363.272C472 423.225 423.225 472 363.273 472H148.728C88.775 472 40 423.225 40 363.273V148.728C40 88.775 88.775 40 148.728 40h214.544C423.225 40 472 88.775 472 148.728v214.544z"/><path d="M256 118c-76.094 0-138 61.906-138 138s61.906 138 138 138 138-61.906 138-138-61.906-138-138-138zm0 236c-54.037 0-98-43.963-98-98s43.963-98 98-98 98 43.963 98 98-43.963 98-98 98z"/><circle cx="396" cy="116" r="20"/>
</symbol>
</svg>